<mxfile host="app.diagrams.net" modified="2024-05-24T08:49:44.544Z" agent="Mozilla/5.0 (Windows NT 10.0; Win64; x64; rv:126.0) Gecko/20100101 Firefox/126.0" etag="9lbXK2cJtaS8ciCXVcrA" version="24.4.7" type="device">
  <diagram name="Seite-1" id="E5PK13C2mxrQgvxuqQ0h">
    <mxGraphModel dx="1050" dy="567" grid="1" gridSize="10" guides="1" tooltips="1" connect="1" arrows="1" fold="1" page="1" pageScale="1" pageWidth="827" pageHeight="1169" math="0" shadow="0">
      <root>
        <mxCell id="0" />
        <mxCell id="1" parent="0" />
        <mxCell id="-f3HKdG4PzL6shU_wDTB-9" value="Fach" style="rounded=0;whiteSpace=wrap;html=1;fontStyle=1" parent="1" vertex="1">
          <mxGeometry x="320" y="60" width="100" height="30" as="geometry" />
        </mxCell>
        <mxCell id="-f3HKdG4PzL6shU_wDTB-10" value="Lehrer" style="rounded=0;whiteSpace=wrap;html=1;fontStyle=1" parent="1" vertex="1">
          <mxGeometry x="100" y="60" width="100" height="30" as="geometry" />
        </mxCell>
        <mxCell id="-f3HKdG4PzL6shU_wDTB-11" value="" style="endArrow=open;html=1;rounded=0;align=center;verticalAlign=top;endFill=0;labelBackgroundColor=none;jumpSize=10;endSize=10;startArrow=cross;startFill=0;" parent="1" source="-f3HKdG4PzL6shU_wDTB-10" target="-f3HKdG4PzL6shU_wDTB-9" edge="1">
          <mxGeometry relative="1" as="geometry">
            <mxPoint x="350" y="300" as="sourcePoint" />
            <mxPoint x="550" y="300" as="targetPoint" />
          </mxGeometry>
        </mxCell>
        <mxCell id="-f3HKdG4PzL6shU_wDTB-12" value="1..&lt;sub&gt;&lt;font style=&quot;font-size: 9px;&quot;&gt;&lt;font style=&quot;font-size: 10px;&quot;&gt;&lt;font style=&quot;font-size: 11px;&quot;&gt;&lt;font style=&quot;font-size: 12px;&quot;&gt;&lt;font style=&quot;font-size: 13px;&quot;&gt;&lt;font style=&quot;font-size: 14px;&quot;&gt;&lt;font style=&quot;font-size: 15px;&quot;&gt;&lt;font style=&quot;font-size: 14px;&quot;&gt;&lt;font style=&quot;font-size: 13px;&quot;&gt;*&lt;/font&gt;&lt;/font&gt;&lt;/font&gt;&lt;/font&gt;&lt;/font&gt;&lt;/font&gt;&lt;/font&gt;&lt;/font&gt;&lt;/font&gt;&lt;/sub&gt;" style="resizable=0;html=1;align=left;verticalAlign=bottom;labelBackgroundColor=none;spacing=2;spacingLeft=4;" parent="-f3HKdG4PzL6shU_wDTB-11" connectable="0" vertex="1">
          <mxGeometry x="-1" relative="1" as="geometry" />
        </mxCell>
        <mxCell id="-f3HKdG4PzL6shU_wDTB-13" value="0..2" style="resizable=0;html=1;align=right;verticalAlign=bottom;labelBackgroundColor=none;spacingRight=4;spacing=2;spacingBottom=2;" parent="-f3HKdG4PzL6shU_wDTB-11" connectable="0" vertex="1">
          <mxGeometry x="1" relative="1" as="geometry" />
        </mxCell>
        <mxCell id="-f3HKdG4PzL6shU_wDTB-21" value="" style="endArrow=none;html=1;rounded=0;strokeColor=#006666;strokeWidth=2;" parent="1" edge="1">
          <mxGeometry width="50" height="50" relative="1" as="geometry">
            <mxPoint x="40" y="120" as="sourcePoint" />
            <mxPoint x="460" y="120" as="targetPoint" />
          </mxGeometry>
        </mxCell>
        <mxCell id="aum2mgN4tMux0J0dkr3U-2" value=": Fach" style="rounded=0;whiteSpace=wrap;html=1;fontStyle=4" parent="1" vertex="1">
          <mxGeometry x="320" y="150" width="100" height="30" as="geometry" />
        </mxCell>
        <mxCell id="aum2mgN4tMux0J0dkr3U-3" value=": Lehrer" style="rounded=0;whiteSpace=wrap;html=1;fontStyle=4" parent="1" vertex="1">
          <mxGeometry x="100" y="150" width="100" height="30" as="geometry" />
        </mxCell>
        <mxCell id="aum2mgN4tMux0J0dkr3U-4" value="" style="endArrow=open;html=1;rounded=0;align=center;verticalAlign=top;endFill=0;labelBackgroundColor=none;jumpSize=10;endSize=10;startArrow=cross;startFill=0;" parent="1" source="aum2mgN4tMux0J0dkr3U-3" target="aum2mgN4tMux0J0dkr3U-2" edge="1">
          <mxGeometry relative="1" as="geometry">
            <mxPoint x="350" y="400" as="sourcePoint" />
            <mxPoint x="550" y="400" as="targetPoint" />
          </mxGeometry>
        </mxCell>
        <mxCell id="aum2mgN4tMux0J0dkr3U-7" value=": Lehrer" style="rounded=0;whiteSpace=wrap;html=1;fontStyle=4" parent="1" vertex="1">
          <mxGeometry x="210" y="210" width="100" height="30" as="geometry" />
        </mxCell>
        <mxCell id="aum2mgN4tMux0J0dkr3U-8" value=": Fach" style="rounded=0;whiteSpace=wrap;html=1;fontStyle=4" parent="1" vertex="1">
          <mxGeometry x="210" y="270" width="100" height="30" as="geometry" />
        </mxCell>
        <mxCell id="ULXr80a19Jrvq-lgm4m6-1" value="1" style="ellipse;whiteSpace=wrap;html=1;fontColor=#FFFFFF;strokeColor=#006666;strokeWidth=2;fontStyle=1;fillColor=#006666;" vertex="1" parent="1">
          <mxGeometry x="55" y="155" width="20" height="20" as="geometry" />
        </mxCell>
        <mxCell id="ULXr80a19Jrvq-lgm4m6-2" value="2" style="ellipse;whiteSpace=wrap;html=1;fontColor=#FFFFFF;strokeColor=#006666;strokeWidth=2;fontStyle=1;fillColor=#006666;" vertex="1" parent="1">
          <mxGeometry x="55" y="215" width="20" height="20" as="geometry" />
        </mxCell>
        <mxCell id="ULXr80a19Jrvq-lgm4m6-3" value="3" style="ellipse;whiteSpace=wrap;html=1;fontColor=#FFFFFF;strokeColor=#006666;strokeWidth=2;fontStyle=1;fillColor=#006666;" vertex="1" parent="1">
          <mxGeometry x="55" y="275" width="20" height="20" as="geometry" />
        </mxCell>
      </root>
    </mxGraphModel>
  </diagram>
</mxfile>
